<svg xmlns="http://www.w3.org/2000/svg" xmlns:xlink="http://www.w3.org/1999/xlink" width="40" height="40" viewBox="0 0 40 40">
  <defs>
    <clipPath id="clip-path">
      <path id="Caminho_106" data-name="Caminho 106" d="M52,248a20,20,0,1,0-20-20A20,20,0,0,0,52,248Z" transform="translate(-2 34)" fill="#fff"/>
    </clipPath>
  </defs>
  <g id="icon_sem_alergia" transform="translate(-39 -318)">
    <path id="Caminho_90" data-name="Caminho 90" d="M52,248a20,20,0,1,0-20-20A20,20,0,0,0,52,248Z" transform="translate(7 110)" fill="#f0f0f0"/>
    <g id="Grupo_de_máscara_2" data-name="Grupo de máscara 2" transform="translate(9 76)" clip-path="url(#clip-path)">
      <g id="Grupo_37" data-name="Grupo 37" transform="translate(-2 34)">
        <path id="Caminho_91" data-name="Caminho 91" d="M39.467,238.934l9.067-4.267,3.733,1.067L56,234.667l9.067,4.267c1.636.64,2.667,2.755,2.667,4.512v4.021a1.068,1.068,0,0,1-1.067,1.067h-28.8a1.068,1.068,0,0,1-1.067-1.067v-4.021C36.8,241.689,37.831,239.574,39.467,238.934Z" fill="#fff"/>
        <path id="Caminho_92" data-name="Caminho 92" d="M66.667,249.067h-28.8a1.6,1.6,0,0,1-1.6-1.6v-4.092a5.894,5.894,0,0,1,3.355-5.3l8.834-3.956,3.811.545,3.811-.545,8.824,3.952a5.895,5.895,0,0,1,3.366,5.306v4.092a1.6,1.6,0,0,1-1.6,1.6ZM40.074,239.04a4.821,4.821,0,0,0-2.74,4.335v4.092a.533.533,0,0,0,.533.533h28.8a.533.533,0,0,0,.533-.533v-4.092a4.821,4.821,0,0,0-2.745-4.337l-8.533-3.821-3.655.522-3.656-.522Z"/>
        <path id="Caminho_93" data-name="Caminho 93" d="M59.158,227.527a15.125,15.125,0,0,1-.3-3.173c.1-.37-.194-.354,1.406.18-2.133-5.334-4.886-5.867-8-5.867A7.269,7.269,0,0,0,48,219.734c-2.433,0-2.75,3.84-2.787,7.538-.579-.22-.947.218-.947.995a4.178,4.178,0,0,0,1.6,3.2c.815,3.979,3.733,6.4,6.4,6.4s5.333-2.667,6.4-6.4c1.184-.5,1.6-2.324,1.6-3.2C60.267,227.346,59.9,226.951,59.158,227.527Z" fill="#fff"/>
        <path id="Caminho_94" data-name="Caminho 94" d="M49.067,222.934c1.6,1.066,4.988,1.6,6.4,1.6h3.2s1.067-.534,1.6,0c-1.6-4.8-5.3-5.867-6.933-5.867H51.2a4.572,4.572,0,0,0-2.667,1.067c-1.5-.48-3.2,1.329-3.2,3.733v3.2C46.933,226.134,48.533,223.467,49.067,222.934Z" fill="#fff"/>
        <path id="Caminho_95" data-name="Caminho 95" d="M50.091,223.936a11.264,11.264,0,0,0,4.9,1.131h1.36a.534.534,0,0,0,0-1.067h-1.36a10.183,10.183,0,0,1-4.437-1.024l-.832-.4a1.068,1.068,0,0,0-1.36.373l-.853,1.3a.533.533,0,0,0,.891.587l.853-1.3Z"/>
        <path id="Caminho_96" data-name="Caminho 96" d="M59.883,226.731a1.046,1.046,0,0,0-.229-.032,8.175,8.175,0,0,0-.491-1.835v-.058A2.8,2.8,0,0,1,59.9,225a.535.535,0,0,0,.285.034.523.523,0,0,0,.262-.118.533.533,0,0,0,.178-.524,7.615,7.615,0,0,0-7.824-6.256h-.533a7.789,7.789,0,0,0-3.9,1.066,3.708,3.708,0,0,0-3.568,3.68,12.277,12.277,0,0,0,.069,2.987,3.736,3.736,0,0,1,.048.533.969.969,0,0,1-.048.3,1.093,1.093,0,0,0-.235.032c-.88.235-1.248,1.52-.853,2.992a3.123,3.123,0,0,0,1.536,2.133,12.318,12.318,0,0,0,1.36,2.811,7.909,7.909,0,0,0,5.589,3.733,6.564,6.564,0,0,0,4.942-2.811c.2-.244.647-.922.647-.922a12.338,12.338,0,0,0,1.344-2.811,3.044,3.044,0,0,0,1.536-2.133C61.131,228.256,60.736,226.971,59.883,226.731Zm-.176,2.736c-.267.987-.768,1.4-.923,1.4a.536.536,0,0,0-.333.1.53.53,0,0,0-.2.283c-.869,3.024-3.221,6.086-5.984,6.086s-5.115-3.062-6.016-6.08a.533.533,0,0,0-.507-.384h-.011c-.155,0-.661-.416-.923-1.4s-.027-1.648.1-1.68a.321.321,0,0,1,.144.064.534.534,0,0,0,.735-.168.542.542,0,0,0,.081-.258,6.534,6.534,0,0,1,.091-.822,3.062,3.062,0,0,0-.043-.874,11.323,11.323,0,0,1-.048-2.747,2.654,2.654,0,0,1,2.667-2.72.529.529,0,0,0,.32-.107,6.457,6.457,0,0,1,3.413-.96H52.8a6.424,6.424,0,0,1,6.533,4.576,1.23,1.23,0,0,0-1.013.256,1.067,1.067,0,0,0-.155,1.227,6.451,6.451,0,0,1,.48,2.171.533.533,0,0,0,.558.505.523.523,0,0,0,.262-.084.349.349,0,0,1,.144-.064C59.739,227.83,59.973,228.48,59.707,229.467Z"/>
      </g>
    </g>
  </g>
</svg>
